<?xml version="1.0" encoding="UTF-8" standalone="no"?><svg xmlns="http://www.w3.org/2000/svg" xmlns:xlink="http://www.w3.org/1999/xlink" contentStyleType="text/css" height="645px" preserveAspectRatio="none" style="width:942px;height:645px;background:#FFFFFF;" version="1.1" viewBox="0 0 942 645" width="942px" zoomAndPan="magnify"><defs/><g><!--MD5=[121a8bf1197281ab89ed693fab589f94]
cluster Domain--><g id="cluster_Domain"><rect fill="none" height="440" rx="2.5" ry="2.5" style="stroke:#000000;stroke-width:1.5;" width="311" x="310" y="7"/><text fill="#000000" font-family="sans-serif" font-size="14" font-weight="bold" lengthAdjust="spacing" textLength="52" x="439.5" y="23.5332">Domain</text></g><!--MD5=[114f4823940f317c08f5bedd633c9afd]
cluster Entities--><g id="cluster_Entities"><rect fill="none" height="100" rx="2.5" ry="2.5" style="stroke:#000000;stroke-width:1.5;" width="219" x="356" y="51"/><text fill="#000000" font-family="sans-serif" font-size="14" font-weight="bold" lengthAdjust="spacing" textLength="53" x="439" y="67.5332">Entities</text></g><!--MD5=[c6348f98a6dbaaa41a93f16d8bef2fde]
cluster Use Cases--><g id="cluster_Use Cases"><rect fill="none" height="100" rx="2.5" ry="2.5" style="stroke:#000000;stroke-width:1.5;" width="263" x="334" y="199"/><text fill="#000000" font-family="sans-serif" font-size="14" font-weight="bold" lengthAdjust="spacing" textLength="74" x="428.5" y="215.5332">Use Cases</text></g><!--MD5=[0b89f7d34c26fffbb81ea7301eb9df33]
cluster Interfaces--><g id="cluster_Interfaces"><rect fill="none" height="100" rx="2.5" ry="2.5" style="stroke:#000000;stroke-width:1.5;" width="259" x="336" y="323"/><text fill="#000000" font-family="sans-serif" font-size="14" font-weight="bold" lengthAdjust="spacing" textLength="71" x="430" y="339.5332">Interfaces</text></g><!--MD5=[d64883541e3d62e3241c4d12decf100d]
cluster Application--><g id="cluster_Application"><rect fill="none" height="168" rx="2.5" ry="2.5" style="stroke:#000000;stroke-width:1.5;" width="291" x="645" y="7"/><text fill="#000000" font-family="sans-serif" font-size="14" font-weight="bold" lengthAdjust="spacing" textLength="78" x="751.5" y="23.5332">Application</text></g><!--MD5=[cdfd548b3455e70392372b1f27091970]
cluster Services--><g id="cluster_Services"><rect fill="none" height="100" rx="2.5" ry="2.5" style="stroke:#000000;stroke-width:1.5;" width="243" x="669" y="51"/><text fill="#000000" font-family="sans-serif" font-size="14" font-weight="bold" lengthAdjust="spacing" textLength="62" x="759.5" y="67.5332">Services</text></g><!--MD5=[5a2c09c7a25dd2d50c87c8f70ce7edbd]
cluster Interface Adapters--><g id="cluster_Interface Adapters"><rect fill="none" height="168" rx="2.5" ry="2.5" style="stroke:#000000;stroke-width:1.5;" width="903" x="7" y="471"/><text fill="#000000" font-family="sans-serif" font-size="14" font-weight="bold" lengthAdjust="spacing" textLength="130" x="393.5" y="487.5332">Interface Adapters</text></g><!--MD5=[0525423066631da0d3b80af306d70106]
cluster Presenters--><g id="cluster_Presenters"><rect fill="none" height="100" rx="2.5" ry="2.5" style="stroke:#000000;stroke-width:1.5;" width="274" x="329" y="515"/><text fill="#000000" font-family="sans-serif" font-size="14" font-weight="bold" lengthAdjust="spacing" textLength="78" x="427" y="531.5332">Presenters</text></g><!--MD5=[ed1d20ea533a2a0e7df5ba3c35e56ced]
cluster Controllers--><g id="cluster_Controllers"><rect fill="none" height="100" rx="2.5" ry="2.5" style="stroke:#000000;stroke-width:1.5;" width="274" x="31" y="515"/><text fill="#000000" font-family="sans-serif" font-size="14" font-weight="bold" lengthAdjust="spacing" textLength="79" x="128.5" y="531.5332">Controllers</text></g><!--MD5=[3fb9233493883f849c74676ff31c788a]
cluster Gateways--><g id="cluster_Gateways"><rect fill="none" height="100" rx="2.5" ry="2.5" style="stroke:#000000;stroke-width:1.5;" width="259" x="627" y="515"/><text fill="#000000" font-family="sans-serif" font-size="14" font-weight="bold" lengthAdjust="spacing" textLength="67" x="723" y="531.5332">Gateways</text></g><!--MD5=[7d91349f19809dcdfcd5c77b187f06e7]
class entityA--><g id="elem_entityA"><rect codeLine="6" fill="#F1F1F1" height="48" id="entityA" rx="2.5" ry="2.5" style="stroke:#181818;stroke-width:0.5;" width="76" x="483" y="87"/><ellipse cx="498" cy="103" fill="#ADD1B2" rx="11" ry="11" style="stroke:#181818;stroke-width:1.0;"/><path d="M500.7031,108.4375 Q499.7813,109.3594 497.5156,109.3594 Q496.25,109.3594 495.3281,108.4375 Q493.6719,106.7813 493.6719,103.25 Q493.6719,99.1406 495.4531,97.3438 Q496.3906,96.4219 497.5781,96.4219 Q499.8438,96.4219 500.5781,97.1406 Q501.9688,98.5469 501.9063,100.9375 L499.4375,100.9375 Q499.375,98.8125 498.6406,98.0781 Q498.25,97.6719 497.5781,97.6719 Q497.5781,97.6719 497.5156,98.1406 Q496.1875,99.4688 496.1875,103.125 Q496.1875,106.3125 497.3281,107.4375 Q497.8594,107.9688 497.8594,107.9688 Q498.1094,107.9688 498.6406,107.4375 Q499.3125,106.7813 499.375,104.3906 L501.9688,104.3906 Q501.7656,107.375 500.7031,108.4375 Z " fill="#000000"/><text fill="#000000" font-family="sans-serif" font-size="14" lengthAdjust="spacing" textLength="44" x="512" y="108.7285">EntityA</text><line style="stroke:#181818;stroke-width:0.5;" x1="484" x2="558" y1="119" y2="119"/><line style="stroke:#181818;stroke-width:0.5;" x1="484" x2="558" y1="127" y2="127"/></g><!--MD5=[4bb091ad4360a63df02c824dc8956be7]
class entityB--><g id="elem_entityB"><rect codeLine="7" fill="#F1F1F1" height="48" id="entityB" rx="2.5" ry="2.5" style="stroke:#181818;stroke-width:0.5;" width="76" x="372" y="87"/><ellipse cx="387" cy="103" fill="#ADD1B2" rx="11" ry="11" style="stroke:#181818;stroke-width:1.0;"/><path d="M389.7031,108.4375 Q388.7813,109.3594 386.5156,109.3594 Q385.25,109.3594 384.3281,108.4375 Q382.6719,106.7813 382.6719,103.25 Q382.6719,99.1406 384.4531,97.3438 Q385.3906,96.4219 386.5781,96.4219 Q388.8438,96.4219 389.5781,97.1406 Q390.9688,98.5469 390.9063,100.9375 L388.4375,100.9375 Q388.375,98.8125 387.6406,98.0781 Q387.25,97.6719 386.5781,97.6719 Q386.5781,97.6719 386.5156,98.1406 Q385.1875,99.4688 385.1875,103.125 Q385.1875,106.3125 386.3281,107.4375 Q386.8594,107.9688 386.8594,107.9688 Q387.1094,107.9688 387.6406,107.4375 Q388.3125,106.7813 388.375,104.3906 L390.9688,104.3906 Q390.7656,107.375 389.7031,108.4375 Z " fill="#000000"/><text fill="#000000" font-family="sans-serif" font-size="14" lengthAdjust="spacing" textLength="44" x="401" y="108.7285">EntityB</text><line style="stroke:#181818;stroke-width:0.5;" x1="373" x2="447" y1="119" y2="119"/><line style="stroke:#181818;stroke-width:0.5;" x1="373" x2="447" y1="127" y2="127"/></g><!--MD5=[a5b64addea5d9b9afaf31fb1cad095a9]
class useCaseA--><g id="elem_useCaseA"><rect codeLine="11" fill="#F1F1F1" height="48" id="useCaseA" rx="2.5" ry="2.5" style="stroke:#181818;stroke-width:0.5;" width="98" x="483" y="235"/><ellipse cx="498" cy="251" fill="#ADD1B2" rx="11" ry="11" style="stroke:#181818;stroke-width:1.0;"/><path d="M500.7031,256.4375 Q499.7813,257.3594 497.5156,257.3594 Q496.25,257.3594 495.3281,256.4375 Q493.6719,254.7813 493.6719,251.25 Q493.6719,247.1406 495.4531,245.3438 Q496.3906,244.4219 497.5781,244.4219 Q499.8438,244.4219 500.5781,245.1406 Q501.9688,246.5469 501.9063,248.9375 L499.4375,248.9375 Q499.375,246.8125 498.6406,246.0781 Q498.25,245.6719 497.5781,245.6719 Q497.5781,245.6719 497.5156,246.1406 Q496.1875,247.4688 496.1875,251.125 Q496.1875,254.3125 497.3281,255.4375 Q497.8594,255.9688 497.8594,255.9688 Q498.1094,255.9688 498.6406,255.4375 Q499.3125,254.7813 499.375,252.3906 L501.9688,252.3906 Q501.7656,255.375 500.7031,256.4375 Z " fill="#000000"/><text fill="#000000" font-family="sans-serif" font-size="14" lengthAdjust="spacing" textLength="66" x="512" y="256.7285">UseCaseA</text><line style="stroke:#181818;stroke-width:0.5;" x1="484" x2="580" y1="267" y2="267"/><line style="stroke:#181818;stroke-width:0.5;" x1="484" x2="580" y1="275" y2="275"/></g><!--MD5=[772e6e2a48c0b686044e77d3f8e8d9ce]
class useCaseB--><g id="elem_useCaseB"><rect codeLine="12" fill="#F1F1F1" height="48" id="useCaseB" rx="2.5" ry="2.5" style="stroke:#181818;stroke-width:0.5;" width="98" x="350" y="235"/><ellipse cx="365" cy="251" fill="#ADD1B2" rx="11" ry="11" style="stroke:#181818;stroke-width:1.0;"/><path d="M367.7031,256.4375 Q366.7813,257.3594 364.5156,257.3594 Q363.25,257.3594 362.3281,256.4375 Q360.6719,254.7813 360.6719,251.25 Q360.6719,247.1406 362.4531,245.3438 Q363.3906,244.4219 364.5781,244.4219 Q366.8438,244.4219 367.5781,245.1406 Q368.9688,246.5469 368.9063,248.9375 L366.4375,248.9375 Q366.375,246.8125 365.6406,246.0781 Q365.25,245.6719 364.5781,245.6719 Q364.5781,245.6719 364.5156,246.1406 Q363.1875,247.4688 363.1875,251.125 Q363.1875,254.3125 364.3281,255.4375 Q364.8594,255.9688 364.8594,255.9688 Q365.1094,255.9688 365.6406,255.4375 Q366.3125,254.7813 366.375,252.3906 L368.9688,252.3906 Q368.7656,255.375 367.7031,256.4375 Z " fill="#000000"/><text fill="#000000" font-family="sans-serif" font-size="14" lengthAdjust="spacing" textLength="66" x="379" y="256.7285">UseCaseB</text><line style="stroke:#181818;stroke-width:0.5;" x1="351" x2="447" y1="267" y2="267"/><line style="stroke:#181818;stroke-width:0.5;" x1="351" x2="447" y1="275" y2="275"/></g><!--MD5=[ce11fe556cb83fb353c3b2b0f558a9e5]
class interfaceA--><g id="elem_interfaceA"><rect codeLine="16" fill="#F1F1F1" height="48" id="interfaceA" rx="2.5" ry="2.5" style="stroke:#181818;stroke-width:0.5;" width="96" x="483" y="359"/><ellipse cx="498" cy="375" fill="#ADD1B2" rx="11" ry="11" style="stroke:#181818;stroke-width:1.0;"/><path d="M500.7031,380.4375 Q499.7813,381.3594 497.5156,381.3594 Q496.25,381.3594 495.3281,380.4375 Q493.6719,378.7813 493.6719,375.25 Q493.6719,371.1406 495.4531,369.3438 Q496.3906,368.4219 497.5781,368.4219 Q499.8438,368.4219 500.5781,369.1406 Q501.9688,370.5469 501.9063,372.9375 L499.4375,372.9375 Q499.375,370.8125 498.6406,370.0781 Q498.25,369.6719 497.5781,369.6719 Q497.5781,369.6719 497.5156,370.1406 Q496.1875,371.4688 496.1875,375.125 Q496.1875,378.3125 497.3281,379.4375 Q497.8594,379.9688 497.8594,379.9688 Q498.1094,379.9688 498.6406,379.4375 Q499.3125,378.7813 499.375,376.3906 L501.9688,376.3906 Q501.7656,379.375 500.7031,380.4375 Z " fill="#000000"/><text fill="#000000" font-family="sans-serif" font-size="14" lengthAdjust="spacing" textLength="64" x="512" y="380.7285">InterfaceA</text><line style="stroke:#181818;stroke-width:0.5;" x1="484" x2="578" y1="391" y2="391"/><line style="stroke:#181818;stroke-width:0.5;" x1="484" x2="578" y1="399" y2="399"/></g><!--MD5=[4fc79b785d87f7ac20d69eb6f343ff8c]
class interfaceB--><g id="elem_interfaceB"><rect codeLine="17" fill="#F1F1F1" height="48" id="interfaceB" rx="2.5" ry="2.5" style="stroke:#181818;stroke-width:0.5;" width="96" x="352" y="359"/><ellipse cx="367" cy="375" fill="#ADD1B2" rx="11" ry="11" style="stroke:#181818;stroke-width:1.0;"/><path d="M369.7031,380.4375 Q368.7813,381.3594 366.5156,381.3594 Q365.25,381.3594 364.3281,380.4375 Q362.6719,378.7813 362.6719,375.25 Q362.6719,371.1406 364.4531,369.3438 Q365.3906,368.4219 366.5781,368.4219 Q368.8438,368.4219 369.5781,369.1406 Q370.9688,370.5469 370.9063,372.9375 L368.4375,372.9375 Q368.375,370.8125 367.6406,370.0781 Q367.25,369.6719 366.5781,369.6719 Q366.5781,369.6719 366.5156,370.1406 Q365.1875,371.4688 365.1875,375.125 Q365.1875,378.3125 366.3281,379.4375 Q366.8594,379.9688 366.8594,379.9688 Q367.1094,379.9688 367.6406,379.4375 Q368.3125,378.7813 368.375,376.3906 L370.9688,376.3906 Q370.7656,379.375 369.7031,380.4375 Z " fill="#000000"/><text fill="#000000" font-family="sans-serif" font-size="14" lengthAdjust="spacing" textLength="64" x="381" y="380.7285">InterfaceB</text><line style="stroke:#181818;stroke-width:0.5;" x1="353" x2="447" y1="391" y2="391"/><line style="stroke:#181818;stroke-width:0.5;" x1="353" x2="447" y1="399" y2="399"/></g><!--MD5=[5ed1ffad758beafd854389a74b2ccf73]
class serviceA--><g id="elem_serviceA"><rect codeLine="30" fill="#F1F1F1" height="48" id="serviceA" rx="2.5" ry="2.5" style="stroke:#181818;stroke-width:0.5;" width="88" x="808" y="87"/><ellipse cx="823" cy="103" fill="#ADD1B2" rx="11" ry="11" style="stroke:#181818;stroke-width:1.0;"/><path d="M825.7031,108.4375 Q824.7813,109.3594 822.5156,109.3594 Q821.25,109.3594 820.3281,108.4375 Q818.6719,106.7813 818.6719,103.25 Q818.6719,99.1406 820.4531,97.3438 Q821.3906,96.4219 822.5781,96.4219 Q824.8438,96.4219 825.5781,97.1406 Q826.9688,98.5469 826.9063,100.9375 L824.4375,100.9375 Q824.375,98.8125 823.6406,98.0781 Q823.25,97.6719 822.5781,97.6719 Q822.5781,97.6719 822.5156,98.1406 Q821.1875,99.4688 821.1875,103.125 Q821.1875,106.3125 822.3281,107.4375 Q822.8594,107.9688 822.8594,107.9688 Q823.1094,107.9688 823.6406,107.4375 Q824.3125,106.7813 824.375,104.3906 L826.9688,104.3906 Q826.7656,107.375 825.7031,108.4375 Z " fill="#000000"/><text fill="#000000" font-family="sans-serif" font-size="14" lengthAdjust="spacing" textLength="56" x="837" y="108.7285">ServiceA</text><line style="stroke:#181818;stroke-width:0.5;" x1="809" x2="895" y1="119" y2="119"/><line style="stroke:#181818;stroke-width:0.5;" x1="809" x2="895" y1="127" y2="127"/></g><!--MD5=[5dc57ac314d86de05c2c5f6af64cd71b]
class serviceB--><g id="elem_serviceB"><rect codeLine="31" fill="#F1F1F1" height="48" id="serviceB" rx="2.5" ry="2.5" style="stroke:#181818;stroke-width:0.5;" width="88" x="685" y="87"/><ellipse cx="700" cy="103" fill="#ADD1B2" rx="11" ry="11" style="stroke:#181818;stroke-width:1.0;"/><path d="M702.7031,108.4375 Q701.7813,109.3594 699.5156,109.3594 Q698.25,109.3594 697.3281,108.4375 Q695.6719,106.7813 695.6719,103.25 Q695.6719,99.1406 697.4531,97.3438 Q698.3906,96.4219 699.5781,96.4219 Q701.8438,96.4219 702.5781,97.1406 Q703.9688,98.5469 703.9063,100.9375 L701.4375,100.9375 Q701.375,98.8125 700.6406,98.0781 Q700.25,97.6719 699.5781,97.6719 Q699.5781,97.6719 699.5156,98.1406 Q698.1875,99.4688 698.1875,103.125 Q698.1875,106.3125 699.3281,107.4375 Q699.8594,107.9688 699.8594,107.9688 Q700.1094,107.9688 700.6406,107.4375 Q701.3125,106.7813 701.375,104.3906 L703.9688,104.3906 Q703.7656,107.375 702.7031,108.4375 Z " fill="#000000"/><text fill="#000000" font-family="sans-serif" font-size="14" lengthAdjust="spacing" textLength="56" x="714" y="108.7285">ServiceB</text><line style="stroke:#181818;stroke-width:0.5;" x1="686" x2="772" y1="119" y2="119"/><line style="stroke:#181818;stroke-width:0.5;" x1="686" x2="772" y1="127" y2="127"/></g><!--MD5=[d00ac17d3f8b50e8334df876efba0498]
class presenterA--><g id="elem_presenterA"><rect codeLine="42" fill="#F1F1F1" height="48" id="presenterA" rx="2.5" ry="2.5" style="stroke:#181818;stroke-width:0.5;" width="103" x="483.5" y="551"/><ellipse cx="498.5" cy="567" fill="#ADD1B2" rx="11" ry="11" style="stroke:#181818;stroke-width:1.0;"/><path d="M501.2031,572.4375 Q500.2813,573.3594 498.0156,573.3594 Q496.75,573.3594 495.8281,572.4375 Q494.1719,570.7813 494.1719,567.25 Q494.1719,563.1406 495.9531,561.3438 Q496.8906,560.4219 498.0781,560.4219 Q500.3438,560.4219 501.0781,561.1406 Q502.4688,562.5469 502.4063,564.9375 L499.9375,564.9375 Q499.875,562.8125 499.1406,562.0781 Q498.75,561.6719 498.0781,561.6719 Q498.0781,561.6719 498.0156,562.1406 Q496.6875,563.4688 496.6875,567.125 Q496.6875,570.3125 497.8281,571.4375 Q498.3594,571.9688 498.3594,571.9688 Q498.6094,571.9688 499.1406,571.4375 Q499.8125,570.7813 499.875,568.3906 L502.4688,568.3906 Q502.2656,571.375 501.2031,572.4375 Z " fill="#000000"/><text fill="#000000" font-family="sans-serif" font-size="14" lengthAdjust="spacing" textLength="71" x="512.5" y="572.7285">PresenterA</text><line style="stroke:#181818;stroke-width:0.5;" x1="484.5" x2="585.5" y1="583" y2="583"/><line style="stroke:#181818;stroke-width:0.5;" x1="484.5" x2="585.5" y1="591" y2="591"/></g><!--MD5=[5aa29cae4e07c4d1f8941a61328fcf16]
class presenterB--><g id="elem_presenterB"><rect codeLine="43" fill="#F1F1F1" height="48" id="presenterB" rx="2.5" ry="2.5" style="stroke:#181818;stroke-width:0.5;" width="103" x="345.5" y="551"/><ellipse cx="360.5" cy="567" fill="#ADD1B2" rx="11" ry="11" style="stroke:#181818;stroke-width:1.0;"/><path d="M363.2031,572.4375 Q362.2813,573.3594 360.0156,573.3594 Q358.75,573.3594 357.8281,572.4375 Q356.1719,570.7813 356.1719,567.25 Q356.1719,563.1406 357.9531,561.3438 Q358.8906,560.4219 360.0781,560.4219 Q362.3438,560.4219 363.0781,561.1406 Q364.4688,562.5469 364.4063,564.9375 L361.9375,564.9375 Q361.875,562.8125 361.1406,562.0781 Q360.75,561.6719 360.0781,561.6719 Q360.0781,561.6719 360.0156,562.1406 Q358.6875,563.4688 358.6875,567.125 Q358.6875,570.3125 359.8281,571.4375 Q360.3594,571.9688 360.3594,571.9688 Q360.6094,571.9688 361.1406,571.4375 Q361.8125,570.7813 361.875,568.3906 L364.4688,568.3906 Q364.2656,571.375 363.2031,572.4375 Z " fill="#000000"/><text fill="#000000" font-family="sans-serif" font-size="14" lengthAdjust="spacing" textLength="71" x="374.5" y="572.7285">PresenterB</text><line style="stroke:#181818;stroke-width:0.5;" x1="346.5" x2="447.5" y1="583" y2="583"/><line style="stroke:#181818;stroke-width:0.5;" x1="346.5" x2="447.5" y1="591" y2="591"/></g><!--MD5=[83e008220b0f46170e93f538590ff88c]
class controllerA--><g id="elem_controllerA"><rect codeLine="47" fill="#F1F1F1" height="48" id="controllerA" rx="2.5" ry="2.5" style="stroke:#181818;stroke-width:0.5;" width="103" x="185.5" y="551"/><ellipse cx="200.5" cy="567" fill="#ADD1B2" rx="11" ry="11" style="stroke:#181818;stroke-width:1.0;"/><path d="M203.2031,572.4375 Q202.2813,573.3594 200.0156,573.3594 Q198.75,573.3594 197.8281,572.4375 Q196.1719,570.7813 196.1719,567.25 Q196.1719,563.1406 197.9531,561.3438 Q198.8906,560.4219 200.0781,560.4219 Q202.3438,560.4219 203.0781,561.1406 Q204.4688,562.5469 204.4063,564.9375 L201.9375,564.9375 Q201.875,562.8125 201.1406,562.0781 Q200.75,561.6719 200.0781,561.6719 Q200.0781,561.6719 200.0156,562.1406 Q198.6875,563.4688 198.6875,567.125 Q198.6875,570.3125 199.8281,571.4375 Q200.3594,571.9688 200.3594,571.9688 Q200.6094,571.9688 201.1406,571.4375 Q201.8125,570.7813 201.875,568.3906 L204.4688,568.3906 Q204.2656,571.375 203.2031,572.4375 Z " fill="#000000"/><text fill="#000000" font-family="sans-serif" font-size="14" lengthAdjust="spacing" textLength="71" x="214.5" y="572.7285">ControllerA</text><line style="stroke:#181818;stroke-width:0.5;" x1="186.5" x2="287.5" y1="583" y2="583"/><line style="stroke:#181818;stroke-width:0.5;" x1="186.5" x2="287.5" y1="591" y2="591"/></g><!--MD5=[d8e48d8a499a83b8a53517d5d1a0cc10]
class controllerB--><g id="elem_controllerB"><rect codeLine="48" fill="#F1F1F1" height="48" id="controllerB" rx="2.5" ry="2.5" style="stroke:#181818;stroke-width:0.5;" width="103" x="47.5" y="551"/><ellipse cx="62.5" cy="567" fill="#ADD1B2" rx="11" ry="11" style="stroke:#181818;stroke-width:1.0;"/><path d="M65.2031,572.4375 Q64.2813,573.3594 62.0156,573.3594 Q60.75,573.3594 59.8281,572.4375 Q58.1719,570.7813 58.1719,567.25 Q58.1719,563.1406 59.9531,561.3438 Q60.8906,560.4219 62.0781,560.4219 Q64.3438,560.4219 65.0781,561.1406 Q66.4688,562.5469 66.4063,564.9375 L63.9375,564.9375 Q63.875,562.8125 63.1406,562.0781 Q62.75,561.6719 62.0781,561.6719 Q62.0781,561.6719 62.0156,562.1406 Q60.6875,563.4688 60.6875,567.125 Q60.6875,570.3125 61.8281,571.4375 Q62.3594,571.9688 62.3594,571.9688 Q62.6094,571.9688 63.1406,571.4375 Q63.8125,570.7813 63.875,568.3906 L66.4688,568.3906 Q66.2656,571.375 65.2031,572.4375 Z " fill="#000000"/><text fill="#000000" font-family="sans-serif" font-size="14" lengthAdjust="spacing" textLength="71" x="76.5" y="572.7285">ControllerB</text><line style="stroke:#181818;stroke-width:0.5;" x1="48.5" x2="149.5" y1="583" y2="583"/><line style="stroke:#181818;stroke-width:0.5;" x1="48.5" x2="149.5" y1="591" y2="591"/></g><!--MD5=[898f9e5e74b9191487d670623be019bd]
class gatewayA--><g id="elem_gatewayA"><rect codeLine="52" fill="#F1F1F1" height="48" id="gatewayA" rx="2.5" ry="2.5" style="stroke:#181818;stroke-width:0.5;" width="96" x="774" y="551"/><ellipse cx="789" cy="567" fill="#ADD1B2" rx="11" ry="11" style="stroke:#181818;stroke-width:1.0;"/><path d="M791.7031,572.4375 Q790.7813,573.3594 788.5156,573.3594 Q787.25,573.3594 786.3281,572.4375 Q784.6719,570.7813 784.6719,567.25 Q784.6719,563.1406 786.4531,561.3438 Q787.3906,560.4219 788.5781,560.4219 Q790.8438,560.4219 791.5781,561.1406 Q792.9688,562.5469 792.9063,564.9375 L790.4375,564.9375 Q790.375,562.8125 789.6406,562.0781 Q789.25,561.6719 788.5781,561.6719 Q788.5781,561.6719 788.5156,562.1406 Q787.1875,563.4688 787.1875,567.125 Q787.1875,570.3125 788.3281,571.4375 Q788.8594,571.9688 788.8594,571.9688 Q789.1094,571.9688 789.6406,571.4375 Q790.3125,570.7813 790.375,568.3906 L792.9688,568.3906 Q792.7656,571.375 791.7031,572.4375 Z " fill="#000000"/><text fill="#000000" font-family="sans-serif" font-size="14" lengthAdjust="spacing" textLength="64" x="803" y="572.7285">GatewayA</text><line style="stroke:#181818;stroke-width:0.5;" x1="775" x2="869" y1="583" y2="583"/><line style="stroke:#181818;stroke-width:0.5;" x1="775" x2="869" y1="591" y2="591"/></g><!--MD5=[b3b8bdbcea5a88b6c3c1a48e49b814fe]
class gatewayB--><g id="elem_gatewayB"><rect codeLine="53" fill="#F1F1F1" height="48" id="gatewayB" rx="2.5" ry="2.5" style="stroke:#181818;stroke-width:0.5;" width="96" x="643" y="551"/><ellipse cx="658" cy="567" fill="#ADD1B2" rx="11" ry="11" style="stroke:#181818;stroke-width:1.0;"/><path d="M660.7031,572.4375 Q659.7813,573.3594 657.5156,573.3594 Q656.25,573.3594 655.3281,572.4375 Q653.6719,570.7813 653.6719,567.25 Q653.6719,563.1406 655.4531,561.3438 Q656.3906,560.4219 657.5781,560.4219 Q659.8438,560.4219 660.5781,561.1406 Q661.9688,562.5469 661.9063,564.9375 L659.4375,564.9375 Q659.375,562.8125 658.6406,562.0781 Q658.25,561.6719 657.5781,561.6719 Q657.5781,561.6719 657.5156,562.1406 Q656.1875,563.4688 656.1875,567.125 Q656.1875,570.3125 657.3281,571.4375 Q657.8594,571.9688 657.8594,571.9688 Q658.1094,571.9688 658.6406,571.4375 Q659.3125,570.7813 659.375,568.3906 L661.9688,568.3906 Q661.7656,571.375 660.7031,572.4375 Z " fill="#000000"/><text fill="#000000" font-family="sans-serif" font-size="14" lengthAdjust="spacing" textLength="64" x="672" y="572.7285">GatewayB</text><line style="stroke:#181818;stroke-width:0.5;" x1="644" x2="738" y1="583" y2="583"/><line style="stroke:#181818;stroke-width:0.5;" x1="644" x2="738" y1="591" y2="591"/></g><!--MD5=[e9fe640f35eea836a0c4fe6524a60f03]
reverse link entityA to useCaseA--><g id="link_entityA_useCaseA"><path codeLine="20" d="M523.14,140.46 C525.22,168.05 528.34,209.39 530.27,234.97 " fill="none" id="entityA-backto-useCaseA" style="stroke:#181818;stroke-width:1.0;"/><polygon fill="#181818" points="522.74,135.13,519.4197,144.4023,523.1115,140.1162,527.3976,143.808,522.74,135.13" style="stroke:#181818;stroke-width:1.0;"/></g><!--MD5=[ad400da58fcf7b81091bf152fb072a22]
reverse link entityB to useCaseB--><g id="link_entityB_useCaseB"><path codeLine="21" d="M407.86,140.46 C405.78,168.05 402.66,209.39 400.73,234.97 " fill="none" id="entityB-backto-useCaseB" style="stroke:#181818;stroke-width:1.0;"/><polygon fill="#181818" points="408.26,135.13,403.6024,143.808,407.8885,140.1162,411.5803,144.4023,408.26,135.13" style="stroke:#181818;stroke-width:1.0;"/></g><!--MD5=[a28a6abd0c3918608bf5adb61521f18d]
reverse link useCaseA to interfaceA--><g id="link_useCaseA_interfaceA"><path codeLine="22" d="M531.65,303.27 C531.49,322.01 531.32,343.18 531.19,358.85 " fill="none" id="useCaseA-backto-interfaceA" style="stroke:#181818;stroke-width:1.0;stroke-dasharray:7.0,7.0;"/><polygon fill="none" points="524.65,303.18,531.81,283.23,538.65,303.29,524.65,303.18" style="stroke:#181818;stroke-width:1.0;"/></g><!--MD5=[bc62353fae0b505a56f8a8037da9988a]
reverse link useCaseB to interfaceB--><g id="link_useCaseB_interfaceB"><path codeLine="23" d="M399.35,303.27 C399.51,322.01 399.68,343.18 399.81,358.85 " fill="none" id="useCaseB-backto-interfaceB" style="stroke:#181818;stroke-width:1.0;stroke-dasharray:7.0,7.0;"/><polygon fill="none" points="392.35,303.29,399.19,283.23,406.35,303.18,392.35,303.29" style="stroke:#181818;stroke-width:1.0;"/></g><!--MD5=[53b6c944f2a5a81bb00a5db6c1055c17]
link serviceA to useCaseA--><g id="link_serviceA_useCaseA"><path codeLine="34" d="M837.33,135.28 C826.35,150.9 810,170.78 791,183 C727.68,223.71 641.71,242.87 586.53,251.49 " fill="none" id="serviceA-to-useCaseA" style="stroke:#181818;stroke-width:1.0;stroke-dasharray:7.0,7.0;"/><polygon fill="#181818" points="581.29,252.29,590.7919,254.8812,586.2324,251.5329,589.5806,246.9734,581.29,252.29" style="stroke:#181818;stroke-width:1.0;"/></g><!--MD5=[aa9badd595b1ec0e4c7a8a71eaad460c]
link serviceB to useCaseB--><g id="link_serviceB_useCaseB"><path codeLine="35" d="M689.3,135.14 C659.04,151.56 615.76,172.48 575,183 C551.48,189.07 488.08,180.89 466,191 C447,199.7 430.35,216.27 418.41,230.75 " fill="none" id="serviceB-to-useCaseB" style="stroke:#181818;stroke-width:1.0;stroke-dasharray:7.0,7.0;"/><polygon fill="#181818" points="415.16,234.77,423.9218,230.2722,418.2974,230.8768,417.6927,225.2524,415.16,234.77" style="stroke:#181818;stroke-width:1.0;"/></g><!--MD5=[edee21ca2443f181c225699fbf773957]
link presenterA to interfaceA--><g id="link_presenterA_interfaceA"><path codeLine="56" d="M525.81,550.81 C519.94,516.02 518.31,450.39 522.17,412.66 " fill="none" id="presenterA-to-interfaceA" style="stroke:#181818;stroke-width:1.0;stroke-dasharray:7.0,7.0;"/><polygon fill="#181818" points="522.77,407.3,517.7925,415.7985,522.2131,412.2689,525.7428,416.6895,522.77,407.3" style="stroke:#181818;stroke-width:1.0;"/></g><!--MD5=[1609a6cdfc8ca7ca3c995aee9c19acc9]
link interfaceA to presenterA--><g id="link_interfaceA_presenterA"><path codeLine="64" d="M540.72,407.3 C546.89,442.15 548.52,507.78 544.38,545.46 " fill="none" id="interfaceA-to-presenterA" style="stroke:#181818;stroke-width:1.0;stroke-dasharray:7.0,7.0;"/><polygon fill="#181818" points="543.72,550.81,548.7935,542.3685,544.3332,545.8477,540.8539,541.3874,543.72,550.81" style="stroke:#181818;stroke-width:1.0;"/></g><!--MD5=[d94c07f92a7059e2333619c500554326]
link presenterB to interfaceB--><g id="link_presenterB_interfaceB"><path codeLine="57" d="M388.67,550.81 C384.07,516.02 384.86,450.39 390.11,412.66 " fill="none" id="presenterB-to-interfaceB" style="stroke:#181818;stroke-width:1.0;stroke-dasharray:7.0,7.0;"/><polygon fill="#181818" points="390.92,407.3,385.6268,415.6056,390.1769,412.2445,393.538,416.7945,390.92,407.3" style="stroke:#181818;stroke-width:1.0;"/></g><!--MD5=[de7ae9aee6246f0b11b7b2e75b454b68]
link interfaceB to presenterB--><g id="link_interfaceB_presenterB"><path codeLine="65" d="M408.86,407.3 C413.74,442.15 412.96,507.78 407.43,545.46 " fill="none" id="interfaceB-to-presenterB" style="stroke:#181818;stroke-width:1.0;stroke-dasharray:7.0,7.0;"/><polygon fill="#181818" points="406.58,550.81,411.9433,542.5496,407.3649,545.872,404.0425,541.2936,406.58,550.81" style="stroke:#181818;stroke-width:1.0;"/></g><!--MD5=[7a8b27c0ee0bfe51990f8c868fa4dc0f]
link controllerA to interfaceA--><g id="link_controllerA_interfaceA"><path codeLine="58" d="M236.47,550.87 C246.25,524.36 274.26,482.1 312,463 C339.21,449.23 421.46,468.1 449,455 C468.9,445.54 485.54,426.99 499.32,411.23 " fill="none" id="controllerA-to-interfaceA" style="stroke:#181818;stroke-width:1.0;stroke-dasharray:7.0,7.0;"/><polygon fill="#181818" points="502.76,407.29,493.8154,411.4124,499.4604,411.0467,499.8261,416.6917,502.76,407.29" style="stroke:#181818;stroke-width:1.0;"/></g><!--MD5=[b107bdf144f3fcc92411ea628edf920c]
link interfaceA to controllerA--><g id="link_interfaceA_controllerA"><path codeLine="66" d="M531.66,407.29 C523.33,423.79 505.58,444.74 484,455 C456.46,468.1 374.21,449.23 347,463 C311.18,481.13 284.12,520.13 264.49,546.72 " fill="none" id="interfaceA-to-controllerA" style="stroke:#181818;stroke-width:1.0;stroke-dasharray:7.0,7.0;"/><polygon fill="#181818" points="261.4,550.87,269.9696,546.016,264.3748,546.8512,263.5395,541.2563,261.4,550.87" style="stroke:#181818;stroke-width:1.0;"/></g><!--MD5=[1697c5a9951b87824d816b9aabf06b93]
link controllerB to interfaceB--><g id="link_controllerB_interfaceB"><path codeLine="59" d="M95.4,550.72 C101.5,525.67 121.69,486.29 151,463 C207.8,417.87 291.85,397.81 346.68,389.45 " fill="none" id="controllerB-to-interfaceB" style="stroke:#181818;stroke-width:1.0;stroke-dasharray:7.0,7.0;"/><polygon fill="#181818" points="351.89,388.67,342.4029,386.0252,346.9434,389.3991,343.5695,393.9397,351.89,388.67" style="stroke:#181818;stroke-width:1.0;"/></g><!--MD5=[494a861a4e0ee11ea4d3b45d16992c0d]
link interfaceB to controllerB--><g id="link_interfaceB_controllerB"><path codeLine="67" d="M351.81,393.4 C305.14,403.54 235.3,423.83 186,463 C158.4,484.93 138.89,521.11 123.8,546.18 " fill="none" id="interfaceB-to-controllerB" style="stroke:#181818;stroke-width:1.0;stroke-dasharray:7.0,7.0;"/><polygon fill="#181818" points="121.03,550.72,129.1263,545.112,123.6297,546.449,122.2927,540.9524,121.03,550.72" style="stroke:#181818;stroke-width:1.0;"/></g><!--MD5=[90651547d9a3e1c041129e236575bb26]
link gatewayA to interfaceA--><g id="link_gatewayA_interfaceA"><path codeLine="60" d="M801.54,550.77 C787.23,525.76 768.45,486.42 740,463 C694.33,425.41 629.59,405.2 584.02,394.66 " fill="none" id="gatewayA-to-interfaceA" style="stroke:#181818;stroke-width:1.0;stroke-dasharray:7.0,7.0;"/><polygon fill="#181818" points="579.12,393.55,587.0179,399.4341,583.9972,394.6513,588.78,391.6306,579.12,393.55" style="stroke:#181818;stroke-width:1.0;"/></g><!--MD5=[2b8db210f4bb84c493e0d72861ce8474]
link interfaceA to gatewayA--><g id="link_interfaceA_gatewayA"><path codeLine="68" d="M579.02,388.7 C632.88,396.6 718.52,416.51 775,463 C801.56,484.86 819.69,520.6 826,545.61 " fill="none" id="interfaceA-to-gatewayA" style="stroke:#181818;stroke-width:1.0;stroke-dasharray:7.0,7.0;"/><polygon fill="#181818" points="827.16,550.77,829.0794,541.11,826.0587,545.8928,821.2759,542.8721,827.16,550.77" style="stroke:#181818;stroke-width:1.0;"/></g><!--MD5=[3975b8a955276c54182526f6a3b89c2c]
link gatewayB to interfaceB--><g id="link_gatewayB_interfaceB"><path codeLine="61" d="M668.09,550.9 C649.41,524.4 622.88,482.17 586,463 C558.94,448.93 476.59,467.99 449,455 C429.27,445.71 412.6,427.63 403.16,412.04 " fill="none" id="gatewayB-to-interfaceB" style="stroke:#181818;stroke-width:1.0;stroke-dasharray:7.0,7.0;"/><polygon fill="#181818" points="400.46,407.3,401.4349,417.1005,402.933,411.6456,408.3879,413.1437,400.46,407.3" style="stroke:#181818;stroke-width:1.0;"/></g><!--MD5=[66fa67b401e996f08848ecd56fb215eb]
link interfaceB to gatewayB--><g id="link_interfaceB_gatewayB"><path codeLine="69" d="M429.36,407.3 C444.18,423.79 462.23,444.75 484,455 C511.59,467.99 593.94,448.93 621,463 C655.72,481.05 681.27,519.53 691.32,546.08 " fill="none" id="interfaceB-to-gatewayB" style="stroke:#181818;stroke-width:1.0;stroke-dasharray:7.0,7.0;"/><polygon fill="#181818" points="693.02,550.9,693.809,541.0828,691.3619,546.1829,686.2617,543.7358,693.02,550.9" style="stroke:#181818;stroke-width:1.0;"/></g><!--MD5=[2a455f98d92d49cf7c16b8b4aa238c85]
@startuml 実装クリーンアーキテクチャ

package "Domain" {
  skinparam packageStyle rectangle

  package "Entities" {
    class "EntityA" as entityA
    class "EntityB" as entityB
  }

  package "Use Cases" {
    class "UseCaseA" as useCaseA
    class "UseCaseB" as useCaseB
  }

  package "Interfaces" {
    class "InterfaceA" as interfaceA
    class "InterfaceB" as interfaceB
  }

  entityA <- - useCaseA
  entityB <- - useCaseB
  useCaseA <|.. interfaceA
  useCaseB <|.. interfaceB
}

package "Application" {
  skinparam packageStyle rectangle

  package "Services" {
    class "ServiceA" as serviceA
    class "ServiceB" as serviceB
  }

  serviceA ..> useCaseA
  serviceB ..> useCaseB
}

package "Interface Adapters" {
  skinparam packageStyle rectangle

  package "Presenters" {
    class "PresenterA" as presenterA
    class "PresenterB" as presenterB
  }

  package "Controllers" {
    class "ControllerA" as controllerA
    class "ControllerB" as controllerB
  }

  package "Gateways" {
    class "GatewayA" as gatewayA
    class "GatewayB" as gatewayB
  }

  presenterA ..> interfaceA
  presenterB ..> interfaceB
  controllerA ..> interfaceA
  controllerB ..> interfaceB
  gatewayA ..> interfaceA
  gatewayB ..> interfaceB
}

interfaceA ..> presenterA
interfaceB ..> presenterB
interfaceA ..> controllerA
interfaceB ..> controllerB
interfaceA ..> gatewayA
interfaceB ..> gatewayB

@enduml

PlantUML version 1.2022.7(Tue Aug 23 02:01:30 JST 2022)
(GPL source distribution)
Java Runtime: Java(TM) SE Runtime Environment
JVM: Java HotSpot(TM) 64-Bit Server VM
Default Encoding: MS932
Language: ja
Country: JP
--></g></svg>